<svg width="38" height="36" viewBox="0 0 38 36" fill="none" xmlns="http://www.w3.org/2000/svg">
<g clip-path="url(#clip0_2607_1385)">
<path d="M94.4698 8.28C93.3718 8.28 92.4718 9.18 92.4718 10.278C92.4718 11.376 93.3718 12.276 94.4698 12.276C95.5678 12.276 96.4678 11.376 96.4678 10.278C96.4631 9.74955 96.2511 9.24408 95.8774 8.87039C95.5037 8.49671 94.9982 8.2847 94.4698 8.28ZM29.4358 15.966C23.6218 12.51 14.0458 12.186 8.51979 13.878C8.09252 14.0066 7.63178 13.9616 7.23751 13.7527C6.84325 13.5437 6.54726 13.1878 6.41379 12.762C6.28516 12.3347 6.33019 11.874 6.53912 11.4797C6.74805 11.0855 7.10402 10.7895 7.52979 10.656C13.8838 8.73 24.4498 9.09 31.1458 13.068C31.5275 13.2971 31.8038 13.6671 31.915 14.0983C32.0261 14.5294 31.9632 14.9869 31.7398 15.372C31.5102 15.7532 31.1401 16.0289 30.7092 16.14C30.2783 16.2511 29.8211 16.1886 29.4358 15.966ZM29.2378 21.06C29.0429 21.3757 28.7314 21.6019 28.3709 21.6895C28.0104 21.7771 27.6298 21.7191 27.3118 21.528C22.4698 18.558 15.0898 17.694 9.38379 19.422C9.02814 19.5277 8.64513 19.4887 8.31813 19.3134C7.99113 19.1381 7.74661 18.8407 7.63779 18.486C7.53207 18.1304 7.57112 17.7473 7.74642 17.4203C7.92171 17.0933 8.21908 16.8488 8.57379 16.74C15.1078 14.76 23.2438 15.714 28.7878 19.134C28.9442 19.2306 29.0799 19.3571 29.1872 19.5063C29.2945 19.6555 29.3713 19.8245 29.4131 20.0035C29.4549 20.1824 29.461 20.3679 29.4309 20.5492C29.4008 20.7305 29.3352 20.9041 29.2378 21.06ZM27.0418 25.956C26.8853 26.2099 26.6351 26.392 26.3454 26.4627C26.0556 26.5335 25.7497 26.4872 25.4938 26.334C21.2638 23.742 15.9538 23.166 9.68979 24.606C9.54555 24.6401 9.39596 24.6453 9.24972 24.6211C9.10348 24.597 8.96349 24.544 8.83789 24.4653C8.71229 24.3866 8.60358 24.2837 8.51808 24.1626C8.43257 24.0415 8.37196 23.9047 8.33979 23.76C8.30565 23.6158 8.30052 23.4662 8.32467 23.3199C8.34883 23.1737 8.4018 23.0337 8.48051 22.9081C8.55922 22.7825 8.6621 22.6738 8.78317 22.5883C8.90424 22.5028 9.0411 22.4422 9.18579 22.41C16.0438 20.844 21.9298 21.51 26.6638 24.408C26.9165 24.5655 27.0975 24.8157 27.1682 25.105C27.2388 25.3943 27.1934 25.6997 27.0418 25.956ZM18.7798 0C8.84379 0 0.779785 8.064 0.779785 18C0.779785 27.936 8.84379 36 18.7798 36C28.7158 36 36.7798 27.936 36.7798 18C36.7798 8.064 28.7158 0 18.7798 0ZM49.7578 16.614C46.6438 15.876 46.1038 15.354 46.1038 14.256C46.1038 13.23 47.0758 12.528 48.5158 12.528C49.9198 12.528 51.3058 13.05 52.7638 14.148C52.7998 14.184 52.8718 14.202 52.9258 14.184C52.9798 14.184 53.0338 14.148 53.0518 14.094L54.5638 11.952C54.6178 11.862 54.6178 11.736 54.5278 11.682C52.8424 10.3085 50.7256 9.57525 48.5518 9.612C45.2038 9.612 42.8458 11.628 42.8458 14.508C42.8458 17.604 44.8618 18.684 48.3538 19.53C51.3238 20.214 51.8278 20.79 51.8278 21.816C51.8278 22.95 50.8198 23.652 49.1818 23.652C47.3638 23.652 45.8878 23.04 44.2318 21.6C44.1927 21.5639 44.141 21.5445 44.0878 21.546C44.0338 21.546 43.9798 21.582 43.9438 21.618L42.2338 23.634C42.1618 23.724 42.1798 23.85 42.2518 23.922C44.1282 25.6257 46.5754 26.5635 49.1098 26.55C52.7278 26.55 55.0678 24.57 55.0678 21.51C55.0858 18.972 53.5378 17.532 49.7578 16.614ZM65.8858 20.088C65.8858 22.266 64.5358 23.796 62.6098 23.796C60.7018 23.796 59.2798 22.212 59.2798 20.088C59.2798 17.982 60.7198 16.38 62.6098 16.38C64.5178 16.38 65.8858 17.928 65.8858 20.088ZM63.2578 13.554C61.6918 13.554 60.4138 14.166 59.3518 15.444V14.022C59.3518 13.914 59.2618 13.824 59.1538 13.824H56.3638C56.2558 13.824 56.1658 13.914 56.1658 14.022V29.844C56.1658 29.952 56.2558 30.042 56.3638 30.042H59.1538C59.2618 30.042 59.3518 29.952 59.3518 29.844V24.84C59.8309 25.4058 60.43 25.8577 61.1057 26.1628C61.7814 26.4679 62.5166 26.6187 63.2578 26.604C66.1738 26.604 69.1258 24.354 69.1258 20.07C69.1258 15.786 66.1738 13.554 63.2578 13.554ZM76.6858 23.814C74.6878 23.814 73.1938 22.212 73.1938 20.088C73.1938 17.946 74.6518 16.398 76.6498 16.398C78.6658 16.398 80.1778 18 80.1778 20.124C80.1598 22.266 78.7018 23.814 76.6858 23.814ZM76.6858 13.554C72.9418 13.554 69.9898 16.434 69.9898 20.124C69.9898 23.778 72.9058 26.622 76.6318 26.622C80.3938 26.622 83.3458 23.742 83.3458 20.07C83.3458 16.416 80.4118 13.554 76.6858 13.554ZM91.3558 13.806H88.2958V10.674C88.2958 10.566 88.2058 10.476 88.0978 10.476H85.3078C85.1998 10.476 85.1098 10.566 85.1098 10.674V13.806H83.7598C83.6518 13.806 83.5618 13.896 83.5618 14.004V16.398C83.5618 16.506 83.6518 16.596 83.7598 16.596H85.0918V22.788C85.0918 25.29 86.3338 26.55 88.7998 26.55C89.7898 26.55 90.6178 26.352 91.4098 25.902C91.4429 25.8851 91.4705 25.8593 91.4896 25.8275C91.5087 25.7957 91.5185 25.7591 91.5178 25.722V23.436C91.518 23.401 91.51 23.3665 91.4944 23.3352C91.4787 23.3039 91.4559 23.2768 91.4278 23.256C91.3738 23.22 91.2838 23.22 91.2298 23.238C90.6898 23.508 90.1678 23.634 89.5918 23.634C88.6918 23.634 88.2958 23.22 88.2958 22.32V16.56H91.3558C91.4638 16.56 91.5538 16.47 91.5538 16.362V14.004C91.5538 13.896 91.4638 13.806 91.3558 13.806ZM102.03 13.824V13.446C102.03 12.312 102.462 11.808 103.434 11.808C104.01 11.808 104.478 11.916 105 12.096C105.072 12.114 105.126 12.114 105.18 12.06C105.234 12.024 105.27 11.952 105.27 11.898V9.558C105.27 9.468 105.216 9.396 105.126 9.36C104.372 9.13599 103.59 9.02676 102.804 9.036C100.23 9.036 98.8798 10.476 98.8798 13.212V13.806H97.5478C97.4398 13.806 97.3498 13.896 97.3498 14.004V16.416C97.3498 16.524 97.4398 16.614 97.5478 16.614H98.8798V26.154C98.8798 26.262 98.9698 26.352 99.0778 26.352H101.868C101.976 26.352 102.066 26.262 102.066 26.154V16.614H104.658L108.636 26.154C108.186 27.162 107.736 27.36 107.124 27.36C106.638 27.36 106.116 27.216 105.594 26.928C105.57 26.912 105.543 26.902 105.515 26.8989C105.487 26.8957 105.458 26.8995 105.432 26.91C105.378 26.9299 105.334 26.9682 105.306 27.018L104.37 29.088C104.334 29.178 104.37 29.304 104.46 29.358C105.45 29.898 106.332 30.114 107.43 30.114C109.482 30.114 110.616 29.16 111.624 26.586L116.448 14.112C116.468 14.0462 116.462 13.975 116.43 13.914C116.411 13.8879 116.387 13.8663 116.359 13.8507C116.331 13.8352 116.3 13.826 116.268 13.824H113.37C113.28 13.824 113.208 13.878 113.172 13.968L110.22 22.428L106.962 13.95C106.944 13.9126 106.916 13.881 106.881 13.8587C106.846 13.8364 106.805 13.8244 106.764 13.824H102.03ZM95.8378 13.806H93.0478C92.9398 13.806 92.8498 13.896 92.8498 14.004V26.136C92.8498 26.244 92.9398 26.334 93.0478 26.334H95.8378C95.9458 26.334 96.0358 26.244 96.0358 26.136V14.004C96.0358 13.896 95.9458 13.806 95.8378 13.806ZM118.95 23.886H118.446V24.534H118.95C119.202 24.534 119.364 24.408 119.364 24.21C119.364 23.994 119.202 23.886 118.95 23.886ZM119.292 24.822L119.85 25.596H119.382L118.878 24.876H118.446V25.596H118.05V23.544H118.968C119.454 23.544 119.76 23.796 119.76 24.192C119.76 24.534 119.562 24.732 119.292 24.822ZM118.86 22.86C118.626 22.858 118.394 22.9028 118.178 22.9918C117.962 23.0809 117.766 23.2124 117.601 23.3785C117.437 23.5446 117.308 23.742 117.221 23.959C117.134 24.1761 117.091 24.4083 117.096 24.642C117.093 24.873 117.135 25.1024 117.222 25.3166C117.308 25.5309 117.436 25.7258 117.599 25.8901C117.761 26.0543 117.955 26.1844 118.168 26.273C118.382 26.3616 118.611 26.4068 118.842 26.406C119.076 26.408 119.307 26.3632 119.523 26.2742C119.74 26.1851 119.936 26.0536 120.1 25.8875C120.265 25.7214 120.394 25.524 120.481 25.307C120.568 25.0899 120.61 24.8577 120.606 24.624C120.606 23.634 119.85 22.86 118.86 22.86ZM118.842 26.586C118.584 26.5868 118.328 26.5366 118.09 26.4383C117.852 26.3399 117.635 26.1955 117.453 26.0131C117.27 25.8308 117.126 25.6142 117.028 25.3758C116.929 25.1374 116.879 24.8819 116.88 24.624C116.88 23.544 117.744 22.662 118.842 22.662C119.1 22.6612 119.355 22.7114 119.594 22.8097C119.832 22.9081 120.049 23.0525 120.231 23.2349C120.413 23.4172 120.558 23.6338 120.656 23.8722C120.754 24.1106 120.805 24.3661 120.804 24.624C120.802 25.1439 120.595 25.642 120.227 26.0096C119.86 26.3772 119.362 26.5844 118.842 26.586ZM130.218 24.39C133.314 24.39 135.924 22.302 135.924 18.108C135.924 13.878 133.368 11.754 130.272 11.754H126.78V24.408H130.218V24.39ZM124.458 26.442V9.684H130.326C134.574 9.684 138.3 12.6 138.3 18.108C138.3 23.598 134.538 26.46 130.29 26.46H124.458V26.442ZM148.632 19.602C148.578 17.964 147.516 16.686 145.518 16.686C143.646 16.686 142.512 18.126 142.422 19.602H148.632ZM150.882 23.202C150.252 25.218 148.416 26.802 145.77 26.802C142.728 26.802 140.046 24.588 140.046 20.718C140.046 17.154 142.62 14.706 145.482 14.706C148.974 14.706 150.936 17.118 150.936 20.664C150.936 20.952 150.918 21.24 150.882 21.366H142.314C142.368 23.4 143.826 24.822 145.734 24.822C147.57 24.822 148.506 23.814 148.92 22.536L150.882 23.202ZM154.374 22.788C154.518 23.976 155.418 24.912 157.02 24.912C158.28 24.912 158.964 24.21 158.964 23.4C158.964 22.698 158.442 22.14 157.506 21.942L155.562 21.51C153.78 21.132 152.718 19.926 152.718 18.324C152.718 16.38 154.536 14.724 156.768 14.724C159.882 14.724 160.854 16.758 161.088 17.766L159.126 18.504C159.036 17.91 158.55 16.614 156.768 16.614C155.634 16.614 154.878 17.352 154.878 18.126C154.878 18.81 155.31 19.314 156.174 19.494L158.01 19.89C160.062 20.34 161.16 21.6 161.16 23.274C161.16 24.876 159.81 26.802 157.002 26.802C153.888 26.802 152.556 24.786 152.376 23.49L154.374 22.788ZM163.554 15.084H165.75V26.46H163.554V15.084ZM164.634 9.162C165.534 9.162 166.236 9.864 166.236 10.764C166.237 10.9738 166.196 11.1816 166.115 11.3753C166.035 11.569 165.916 11.7448 165.767 11.8923C165.618 12.0398 165.441 12.156 165.246 12.2343C165.052 12.3125 164.844 12.3512 164.634 12.348C164.425 12.3492 164.219 12.309 164.026 12.2299C163.833 12.1507 163.658 12.034 163.511 11.8867C163.364 11.7394 163.247 11.5643 163.168 11.3716C163.089 11.1789 163.049 10.9723 163.05 10.764C163.05 9.882 163.77 9.162 164.634 9.162ZM176.928 20.394C176.928 18.198 175.596 16.758 173.688 16.758C171.726 16.758 170.394 18.198 170.394 20.394C170.394 22.608 171.672 24.03 173.688 24.03C175.614 24.03 176.928 22.59 176.928 20.394ZM170.268 26.568C170.43 28.152 171.636 29.358 173.364 29.358C175.758 29.358 176.838 28.134 176.838 25.668V24.03C176.298 25.074 175.056 25.902 173.364 25.902C170.34 25.902 168.144 23.616 168.144 20.394C168.144 17.316 170.25 14.868 173.364 14.868C175.11 14.868 176.298 15.534 176.856 16.668V15.084H179.052V25.614C179.052 28.494 177.63 31.32 173.346 31.32C170.502 31.32 168.378 29.52 168.09 27.09L170.268 26.568ZM184.398 26.442H182.184V15.084H184.362V16.722C185.19 15.3 186.54 14.76 187.854 14.76C190.572 14.76 191.922 16.722 191.922 19.26V26.478H189.708V19.638C189.708 18.054 189.042 16.776 187.062 16.776C185.316 16.776 184.416 18.162 184.416 19.89V26.442H184.398Z" fill="white"/>
</g>
<defs>
<clipPath id="clip0_2607_1385">
<rect width="37" height="36" fill="white" transform="translate(0.47998)"/>
</clipPath>
</defs>
</svg>
